<?xml version="1.0" encoding="UTF-8"?>
<svg id="Layer_1" data-name="Layer 1" xmlns="http://www.w3.org/2000/svg" viewBox="0 0 210.64 195.95">
  <path d="M105.94,4.73c6.41,26.31,20.72,50.66,40.79,68.8.8.63,1.13.44-1.87.44-7.79,0-15.78.1-23.52.1-.79,0-.62.06-.82-.17-5.16-6.25-9.48-11.48-14.42-19.54l-1.15-1.87c-.68,1.08-1.23,1.87-1.74,2.65-6.35,9.67-11.26,17.04-19.97,24.76-4.32,3.83-8.78,7.76-14.18,9.94h0l133.09.08c3.54,0,3.19.03,4.82,0,.89-.02.93-.03,2.66-.03.49,0,1.76-.07.33.17-.25.05-.25.04-.91.19-1.98.47-4.16,1.04-6.15,1.6-47.4,13.29-86.71,50.16-96.52,98.47-.29,1.44-.38,1.69-.75,3.42-.21,1-.28,1.36-.51,2.22l-1.98-7.06c-6.35-24.14-21.85-46.79-38.99-65.08-.42-.45-.62-.72-.95-1.17h25.8c.11,0,.33-.03.61.34,5.65,6.69,10.74,13.83,15.32,21.29.74-1.12,1.59-2.53,1.95-3.17,7.12-12.56,16.95-24.03,29.69-31.11l6.87-3.14H.44c-.41-.01-.58,0-.31-.11.39-.14.95-.27,1.67-.45,28.34-7.42,56.64-24.36,75.02-46.91,13.73-16.84,22.34-34.81,27.44-55.88.18-.75.38-1.6.56-2.48.14-.66.21-1.79.36-.29"/>
</svg>